:SAMPLES-PER-SECOND 30
:FULLY-SPECIFIED
:DEGREES
23
root  88.1983 39.2077 -4.94104 -129.823 -86.7972 125.774
RightUpLeg  -1.26052 -7.36247 -4.13365
RightLeg  9.27173 6.97076 0.11576
RightFoot  -5.2519 -0.0143731 -0.403468
RightToes  -3.31784e-009 0 -3.6325e-017
Spine  10.6817 1.52097 3.36015
Spine1  -1.29829 2.08919 -1.34027
HEad  -11.5115 -5.87174 -5.66731
LeftShoulder1  -0.641905 5.23176 -30.998
LeftArm  4.07365 8.362 -45.7903
LeftForeArm  26.8518 -16.7315 -6.20951
LeftHand  -0.0672763 9.53895 -0.333768
RightShoulder  -1.24625 -6.87087 30.5092
RightArm  19.6438 2.21488 47.0468
RightForeArm  17.6964 10.6732 7.98786
RightHand  -0.0239419 5.02435 -0.573521
LeftUpLeg  0.16038 5.59263 0.683751
LeftLeg  4.27845 1.83392 0.0726463
LeftFoot  -1.4114 -0.0535709 0.704181
LeftToes  1.28511e-009 -3.60458e-011 6.16399e-011
24
root  88.1764 39.2 -5.00118 -129.904 -86.8347 125.613
RightUpLeg  -1.01891 -7.12955 -3.99364
RightLeg  9.45018 6.69989 0.0429149
RightFoot  -5.56745 -0.00815138 -0.581805
RightToes  -3.31784e-009 0 -3.6325e-017
Spine  10.6453 1.62058 3.38181
Spine1  -0.759584 2.18961 -1.27932
HEad  -11.5819 -5.549 -5.4995
LeftShoulder1  -0.686612 5.36114 -30.8083
LeftArm  4.83376 7.61438 -46.4195
LeftForeArm  27.2804 -16.786 -6.26542
LeftHand  -0.0870514 10.3164 -0.807138
RightShoulder  -1.252 -6.89755 30.39
RightArm  19.8442 2.20765 47.12
RightForeArm  17.5075 10.7816 7.98681
RightHand  0.00508492 5.11592 -0.25281
LeftUpLeg  0.39649 5.79565 0.882185
LeftLeg  4.44251 1.55096 -0.00328016
LeftFoot  -1.53203 -0.0535784 0.743714
LeftToes  1.28511e-009 -3.60458e-011 6.16399e-011
25
root  88.1491 39.1784 -5.06399 -122.052 -86.9194 117.783
RightUpLeg  -1.19945 -6.78919 -3.97694
RightLeg  10.0217 5.95769 -0.0716629
RightFoot  -6.19467 -0.0242918 -0.401821
RightToes  -3.31784e-009 0 -3.6325e-017
Spine  10.4665 1.59927 3.31207
Spine1  -0.54567 2.14851 -1.25173
HEad  -11.1467 -4.65412 -5.87707
LeftShoulder1  -0.681775 5.34453 -30.8813
LeftArm  3.22454 6.8056 -46.9121
LeftForeArm  28.0158 -15.7575 -6.67442
LeftHand  -0.0612445 11.5711 -0.122731
RightShoulder  -1.27648 -6.954 30.498
RightArm  20.409 2.20846 47.1538
RightForeArm  17.9496 10.8747 8.07177
RightHand  -0.0184223 3.77787 -0.500542
LeftUpLeg  0.241893 5.83338 0.860656
LeftLeg  4.68137 1.10838 -0.0765337
LeftFoot  -1.60208 -0.0552894 0.79984
LeftToes  1.28511e-009 -3.60458e-011 6.16399e-011
26
root  88.0941 39.1527 -5.13159 -97.6338 -87.0136 93.1684
RightUpLeg  -1.05334 -6.94199 -4.31015
RightLeg  10.7507 4.86853 -0.161771
RightFoot  -6.94593 -0.024685 -0.577678
RightToes  -3.31784e-009 0 -3.6325e-017
Spine  10.7034 1.23276 2.84464
Spine1  -0.932348 1.69456 -0.933329
HEad  -10.5526 -3.38013 -6.43813
LeftShoulder1  -0.67995 5.34616 -30.7483
LeftArm  2.25793 6.63886 -47.4047
LeftForeArm  29.5634 -15.5728 -6.59757
LeftHand  -0.0776784 8.53237 -1.04524
RightShoulder  -1.29499 -6.98105 30.7434
RightArm  20.3298 1.8145 47.0226
RightForeArm  18.0939 10.812 8.08892
RightHand  -0.0519126 3.09405 -0.937999
LeftUpLeg  0.320063 5.49868 0.497547
LeftLeg  4.79675 0.258995 -0.00507289
LeftFoot  -1.71984 -0.038848 0.576171
LeftToes  1.28511e-009 -3.60458e-011 6.16399e-011
27
root  87.988 39.139 -5.19842 -80.2044 -86.8191 75.7741
RightUpLeg  -0.936702 -7.21711 -4.44101
RightLeg  11.1263 4.15645 -0.170606
RightFoot  -7.52515 -0.0339457 -0.516386
RightToes  -3.31784e-009 0 -3.6325e-017
Spine  9.47905 1.08157 2.88228
Spine1  0.503541 1.50751 -0.716512
HEad  -9.50769 -3.93601 -6.52647
LeftShoulder1  -0.666578 5.31037 -30.7414
LeftArm  3.88644 6.44527 -47.9331
LeftForeArm  27.4445 -16.7604 -6.16347
LeftHand  -0.0860404 10.1836 -0.712366
RightShoulder  -1.26801 -6.92517 30.561
RightArm  19.7573 1.79414 47.3004
RightForeArm  18.4355 10.5595 8.04642
RightHand  -0.00837049 3.04869 -0.337349
LeftUpLeg  0.219398 5.20405 0.334035
LeftLeg  4.98561 -0.408488 0.124615
LeftFoot  -1.83891 -0.0312972 0.510075
LeftToes  1.28511e-009 -3.60458e-011 6.16399e-011
28
root  87.8274 39.1195 -5.3006 -69.039 -86.5432 64.4901
RightUpLeg  -0.56086 -7.30789 -4.43784
RightLeg  11.4132 3.63952 -0.20949
RightFoot  -8.06203 -0.033703 -0.72849
RightToes  -3.31784e-009 0 -3.6325e-017
Spine  8.77229 0.936628 3.14649
Spine1  1.17794 1.41494 -0.927251
HEad  -8.48826 -3.46185 -6.48019
LeftShoulder1  -0.701117 5.40768 -30.6661
LeftArm  5.42662 6.77101 -48.001
LeftForeArm  25.2276 -18.1058 -5.5711
LeftHand  -0.100328 9.488 -1.31855
RightShoulder  -1.29546 -6.98534 30.7123
RightArm  19.475 1.59258 47.4436
RightForeArm  19.2295 10.3086 8.0638
RightHand  0.0112924 2.29393 -0.024423
LeftUpLeg  0.356502 5.16967 0.411105
LeftLeg  5.35035 -1.12991 0.136594
LeftFoot  -2.21074 -0.0189875 0.404845
LeftToes  1.28511e-009 -3.60458e-011 6.16399e-011
29
root  87.7243 39.077 -5.39052 -64.8377 -86.4302 60.2231
RightUpLeg  -0.631083 -6.95156 -4.20521
RightLeg  12.1228 3.01776 -0.358962
RightFoot  -8.59899 -0.0366697 -0.904751
RightToes  -3.31784e-009 0 -3.6325e-017
Spine  9.00409 1.09979 3.91697
Spine1  0.554586 1.74481 -1.51648
HEad  -6.87764 -3.44725 -6.5973
LeftShoulder1  -0.672048 5.32297 -30.7816
LeftArm  7.70725 7.36079 -47.9063
LeftForeArm  22.8891 -19.6203 -4.98484
LeftHand  -0.0714927 10.8589 -0.234231
RightShoulder  -1.30714 -6.9992 30.8981
RightArm  19.9137 0.820264 47.0823
RightForeArm  19.0881 10.7151 8.00527
RightHand  -0.016648 1.92993 -0.429171
LeftUpLeg  0.0750065 5.1034 0.554441
LeftLeg  6.31085 -1.39875 0.179156
LeftFoot  -2.79466 -0.00358919 0.273797
LeftToes  1.28511e-009 -3.60458e-011 6.16399e-011
30
root  87.6273 38.9995 -5.49302 -56.4729 -86.2199 51.5995
RightUpLeg  -0.555514 -6.84403 -3.93859
RightLeg  13.0521 2.37708 -0.438793
RightFoot  -9.29245 -0.0414929 -1.19756
RightToes  -3.31784e-009 0 -3.6325e-017
Spine  9.1125 1.08022 4.6032
Spine1  0.603656 1.83767 -1.70024
HEad  -5.73746 -2.70102 -6.81994
LeftShoulder1  -0.717207 5.43553 -30.9695
LeftArm  9.39797 7.78177 -47.7532
LeftForeArm  21.4422 -21.3206 -4.30338
LeftHand  -0.028901 10.7562 0.323417
RightShoulder  -1.32716 -7.04359 30.9975
RightArm  19.9902 0.86211 47.1752
RightForeArm  19.4911 10.3631 8.177
RightHand  -0.0361639 1.76433 -0.749769
LeftUpLeg  -0.503504 4.60028 0.722509
LeftLeg  8.17963 -1.49245 0.350329
LeftFoot  -3.66706 0.0154554 0.0987181
LeftToes  1.28511e-009 -3.60458e-011 6.16399e-011
31
root  87.5215 38.8849 -5.58311 -43.9631 -85.7573 38.5982
RightUpLeg  -0.225695 -7.39418 -3.7335
RightLeg  14.1877 1.99063 -0.268517
RightFoot  -10.1356 -0.053379 -1.44866
RightToes  -3.31784e-009 0 -3.6325e-017
Spine  9.3946 0.873893 5.64775
Spine1  0.873131 1.79747 -1.80716
HEad  -4.82073 -2.02466 -7.24237
LeftShoulder1  -0.702119 5.3965 -30.9343
LeftArm  8.53685 8.05523 -47.5139
LeftForeArm  21.7765 -22.0925 -4.05335
LeftHand  -0.0967119 7.84246 -2.09226
RightShoulder  -1.30225 -6.98055 30.9781
RightArm  20.0886 0.77809 47.2761
RightForeArm  19.1241 10.384 8.21256
RightHand  -0.101935 1.76314 -1.81637
LeftUpLeg  -1.36834 3.27541 1.08204
LeftLeg  11.0359 -1.24565 0.376676
LeftFoot  -4.85221 0.0411452 -0.21909
LeftToes  1.28511e-009 -3.60458e-011 6.16399e-011
32
root  87.4044 38.7129 -5.6518 -31.1288 -85.0442 25.2696
RightUpLeg  0.0715612 -8.15658 -3.47653
RightLeg  15.4988 1.58756 -0.0452794
RightFoot  -11.3827 -0.0775754 -1.597
RightToes  -3.31784e-009 0 -3.6325e-017
Spine  10.477 0.312723 7.34062
Spine1  -0.184948 1.60672 -2.72218
HEad  -2.502 -2.51985 -6.69777
LeftShoulder1  -0.781121 5.62693 -30.6449
LeftArm  9.09802 9.00535 -46.988
LeftForeArm  21.267 -23.673 -3.964
LeftHand  -0.101542 9.19657 -1.56652
RightShoulder  -1.43748 -7.22958 31.9653
RightArm  21.5279 1.07641 46.418
RightForeArm  18.3588 10.5331 8.45047
RightHand  -0.11422 2.522 -1.88282
LeftUpLeg  -3.0211 1.04353 1.54863
LeftLeg  15.464 -0.116528 0.339057
LeftFoot  -6.27545 0.0607369 -0.513084
LeftToes  1.28511e-009 -3.60458e-011 6.16399e-011
33
root  87.2966 38.5356 -5.73454 -22.9371 -84.5493 16.5594
RightUpLeg  0.117423 -8.57267 -2.98471
RightLeg  17.1745 1.27407 0.0913905
RightFoot  -12.5556 -0.102083 -1.63422
RightToes  -3.31784e-009 0 -3.6325e-017
Spine  13.3908 -0.358022 9.94243
Spine1  -3.86225 1.67919 -5.22089
HEad  0.650595 -1.27721 -5.1942
LeftShoulder1  -0.819775 5.7778 -29.8684
LeftArm  9.1478 10.8517 -45.8471
LeftForeArm  21.0106 -24.9764 -4.23184
LeftHand  -0.0782865 10.8123 -0.343068
RightShoulder  -1.77885 -7.76911 35.2048
RightArm  25.4898 1.31982 43.3059
RightForeArm  15.6342 11.6126 8.79179
RightHand  -0.124462 2.46895 -2.02868
LeftUpLeg  -5.05404 0.493751 2.29726
LeftLeg  20.3632 -0.130548 0.265854
LeftFoot  -6.67986 0.0885866 -1.17411
LeftToes  1.28511e-009 -3.60458e-011 6.16399e-011
34
root  87.1775 38.4122 -5.82069 -16.9094 -83.2288 9.90358
RightUpLeg  0.649997 -9.12858 -2.76225
RightLeg  18.2747 0.402892 0.00527195
RightFoot  -13.4598 -0.118983 -1.51754
RightToes  -3.31784e-009 0 -3.6325e-017
Spine  12.4242 -0.593337 10.4722
Spine1  -1.56141 1.53196 -4.60395
HEad  1.73818 -1.81695 -4.96046
LeftShoulder1  -0.706679 5.45653 -30.0227
LeftArm  8.07577 10.5389 -45.8006
LeftForeArm  21.1841 -24.8567 -4.20184
LeftHand  -0.06328 10.2883 -0.321899
RightShoulder  -1.70121 -7.63384 34.6582
RightArm  23.9212 2.81811 43.9781
RightForeArm  16.6007 10.2451 9.18618
RightHand  -0.178197 3.70557 -2.54566
LeftUpLeg  -7.38639 -0.449789 2.71851
LeftLeg  25.7965 0.233219 0.445702
LeftFoot  -5.93538 0.226376 -4.00067
LeftToes  1.28511e-009 -3.60458e-011 6.16399e-011
